STARTFONT 2.1
FONT -sun-conga-medium-r-normal--12-120-75-75-p-82-adobe-fontspecific
SIZE 12 75 75
FONTBOUNDINGBOX 18 15 -3 -3

STARTPROPERTIES 28
FOUNDRY "sun"
FAMILY_NAME "conga"
WEIGHT_NAME "medium"
SLANT "r"
SETWIDTH_NAME "normal"
ADD_STYLE_NAME ""
PIXEL_SIZE 12
POINT_SIZE 120
RESOLUTION_X 75
RESOLUTION_Y 75
SPACING "p"
AVERAGE_WIDTH 82
CHARSET_REGISTRY "adobe"
CHARSET_ENCODING "fontspecific"
COPYRIGHT "© 1999 Sun Microsystems, Inc."
RAW_PIXELSIZE 1000
RAW_POINTSIZE 964
RAW_ASCENT 927
RAW_DESCENT 211
RAW_AVERAGE_WIDTH 6603
FACE_NAME "CongaNormal"
_XMBDFED_INFO "Edited with xmbdfed 2.4."
WEIGHT 10
X_HEIGHT -1
QUAD_WIDTH 8
DEFAULT_CHAR 4
FONT_DESCENT 3
FONT_ASCENT 12
ENDPROPERTIES

CHARS 203

STARTCHAR char32
ENCODING 32
SWIDTH 43 0
DWIDTH 6 0
BBX 0 0 0 0
BITMAP
ENDCHAR

STARTCHAR char33
ENCODING 33
SWIDTH 21 0
DWIDTH 3 0
BBX 1 9 1 0
BITMAP
80
80
80
80
80
80
00
00
80
ENDCHAR

STARTCHAR char34
ENCODING 34
SWIDTH 28 0
DWIDTH 4 0
BBX 3 3 0 6
BITMAP
A0
A0
A0
ENDCHAR

STARTCHAR char35
ENCODING 35
SWIDTH 50 0
DWIDTH 7 0
BBX 6 9 0 0
BITMAP
24
24
7C
28
28
38
C8
48
48
ENDCHAR

STARTCHAR char36
ENCODING 36
SWIDTH 71 0
DWIDTH 10 0
BBX 8 11 0 -1
BITMAP
08
1C
6B
48
48
3C
0B
09
49
3E
08
ENDCHAR

STARTCHAR char37
ENCODING 37
SWIDTH 34 0
DWIDTH 15 0
BBX 14 9 0 0
BITMAP
7040
8840
8480
8570
8A88
7484
0C84
0888
1070
ENDCHAR

STARTCHAR char38
ENCODING 38
SWIDTH 6 0
DWIDTH 11 0
BBX 10 9 0 0
BITMAP
3C00
4600
4200
2480
38C0
C700
8200
8700
7C80
ENDCHAR

STARTCHAR char39
ENCODING 39
SWIDTH 14 0
DWIDTH 2 0
BBX 1 3 1 6
BITMAP
80
80
80
ENDCHAR

STARTCHAR char40
ENCODING 40
SWIDTH 28 0
DWIDTH 4 0
BBX 2 9 1 0
BITMAP
40
80
80
80
80
80
80
80
40
ENDCHAR

STARTCHAR char41
ENCODING 41
SWIDTH 28 0
DWIDTH 4 0
BBX 3 9 0 0
BITMAP
80
40
20
20
20
20
20
40
40
ENDCHAR

STARTCHAR char42
ENCODING 42
SWIDTH 50 0
DWIDTH 7 0
BBX 6 5 0 4
BITMAP
20
64
FC
30
48
ENDCHAR

STARTCHAR char43
ENCODING 43
SWIDTH 64 0
DWIDTH 9 0
BBX 8 7 0 0
BITMAP
08
08
08
FF
08
08
08
ENDCHAR

STARTCHAR char44
ENCODING 44
SWIDTH 14 0
DWIDTH 2 0
BBX 1 2 1 -1
BITMAP
80
80
ENDCHAR

STARTCHAR char45
ENCODING 45
SWIDTH 28 0
DWIDTH 4 0
BBX 4 1 0 3
BITMAP
70
ENDCHAR

STARTCHAR char46
ENCODING 46
SWIDTH 14 0
DWIDTH 2 0
BBX 1 1 1 0
BITMAP
80
ENDCHAR

STARTCHAR char47
ENCODING 47
SWIDTH 64 0
DWIDTH 9 0
BBX 8 9 0 0
BITMAP
01
02
04
04
08
10
20
40
80
ENDCHAR

STARTCHAR char48
ENCODING 48
SWIDTH 6 0
DWIDTH 11 0
BBX 9 9 0 0
BITMAP
1E00
6100
4080
8080
8080
8080
4080
6100
1E00
ENDCHAR

STARTCHAR char49
ENCODING 49
SWIDTH 6 0
DWIDTH 11 0
BBX 3 9 3 0
BITMAP
20
E0
20
20
20
20
20
20
20
ENDCHAR

STARTCHAR char50
ENCODING 50
SWIDTH 6 0
DWIDTH 11 0
BBX 8 9 1 0
BITMAP
3C
42
42
02
04
18
20
40
FF
ENDCHAR

STARTCHAR char51
ENCODING 51
SWIDTH 6 0
DWIDTH 11 0
BBX 8 9 1 0
BITMAP
3C
C2
43
02
1E
01
01
83
7C
ENDCHAR

STARTCHAR char52
ENCODING 52
SWIDTH 6 0
DWIDTH 11 0
BBX 8 9 1 0
BITMAP
04
0C
14
24
44
84
FF
04
04
ENDCHAR

STARTCHAR char53
ENCODING 53
SWIDTH 6 0
DWIDTH 11 0
BBX 8 9 1 0
BITMAP
FE
80
80
BC
42
01
01
82
7C
ENDCHAR

STARTCHAR char54
ENCODING 54
SWIDTH 6 0
DWIDTH 11 0
BBX 8 9 1 0
BITMAP
1C
63
40
BC
A2
C1
C1
42
3C
ENDCHAR

STARTCHAR char55
ENCODING 55
SWIDTH 6 0
DWIDTH 11 0
BBX 7 9 1 0
BITMAP
FE
02
02
04
08
08
10
10
20
ENDCHAR

STARTCHAR char56
ENCODING 56
SWIDTH 6 0
DWIDTH 11 0
BBX 8 9 1 0
BITMAP
7C
82
81
C2
7C
83
81
83
7C
ENDCHAR

STARTCHAR char57
ENCODING 57
SWIDTH 6 0
DWIDTH 11 0
BBX 8 9 1 0
BITMAP
38
46
82
83
C5
79
02
86
78
ENDCHAR

STARTCHAR char58
ENCODING 58
SWIDTH 21 0
DWIDTH 3 0
BBX 1 5 1 0
BITMAP
80
00
00
00
80
ENDCHAR

STARTCHAR char59
ENCODING 59
SWIDTH 21 0
DWIDTH 3 0
BBX 1 7 1 -2
BITMAP
80
00
00
00
80
80
80
ENDCHAR

STARTCHAR char60
ENCODING 60
SWIDTH 57 0
DWIDTH 8 0
BBX 6 6 1 0
BITMAP
0C
70
80
C0
38
04
ENDCHAR

STARTCHAR char61
ENCODING 61
SWIDTH 64 0
DWIDTH 9 0
BBX 8 3 0 2
BITMAP
FF
00
FF
ENDCHAR

STARTCHAR char62
ENCODING 62
SWIDTH 57 0
DWIDTH 8 0
BBX 6 6 1 0
BITMAP
C0
30
0C
18
60
80
ENDCHAR

STARTCHAR char63
ENCODING 63
SWIDTH 50 0
DWIDTH 7 0
BBX 6 9 0 0
BITMAP
38
4C
04
08
08
10
10
00
10
ENDCHAR

STARTCHAR char64
ENCODING 64
SWIDTH 27 0
DWIDTH 14 0
BBX 9 9 2 0
BITMAP
3E00
4100
DE80
A680
A480
A580
DE00
4100
3E00
ENDCHAR

STARTCHAR char65
ENCODING 65
SWIDTH 6 0
DWIDTH 11 0
BBX 10 9 0 0
BITMAP
0C00
0C00
1400
1200
2200
2300
7F00
4180
C0C0
ENDCHAR

STARTCHAR char66
ENCODING 66
SWIDTH 6 0
DWIDTH 11 0
BBX 8 9 1 0
BITMAP
FE
81
81
81
FE
81
81
81
FE
ENDCHAR

STARTCHAR char67
ENCODING 67
SWIDTH 6 0
DWIDTH 11 0
BBX 10 9 0 0
BITMAP
1F00
2080
4000
8000
8000
8000
4040
60C0
1F00
ENDCHAR

STARTCHAR char68
ENCODING 68
SWIDTH 6 0
DWIDTH 11 0
BBX 9 9 1 0
BITMAP
FC00
8300
8100
8080
8080
8080
8180
8300
FE00
ENDCHAR

STARTCHAR char69
ENCODING 69
SWIDTH 71 0
DWIDTH 10 0
BBX 7 9 1 0
BITMAP
FE
80
80
80
F8
80
80
80
FE
ENDCHAR

STARTCHAR char70
ENCODING 70
SWIDTH 71 0
DWIDTH 10 0
BBX 8 9 1 0
BITMAP
FF
80
80
80
FC
80
80
80
C0
ENDCHAR

STARTCHAR char71
ENCODING 71
SWIDTH 6 0
DWIDTH 11 0
BBX 10 9 0 0
BITMAP
1F00
20C0
4040
8000
8200
83C0
C040
60C0
1F00
ENDCHAR

STARTCHAR char72
ENCODING 72
SWIDTH 6 0
DWIDTH 11 0
BBX 8 9 1 0
BITMAP
81
81
81
81
FF
81
81
81
C1
ENDCHAR

STARTCHAR char73
ENCODING 73
SWIDTH 28 0
DWIDTH 4 0
BBX 2 9 1 0
BITMAP
80
80
80
80
80
80
80
80
C0
ENDCHAR

STARTCHAR char74
ENCODING 74
SWIDTH 64 0
DWIDTH 9 0
BBX 8 9 0 0
BITMAP
07
02
02
02
02
02
02
42
7C
ENDCHAR

STARTCHAR char75
ENCODING 75
SWIDTH 71 0
DWIDTH 10 0
BBX 9 9 1 0
BITMAP
8300
8400
8800
B000
D800
8800
8400
8200
C380
ENDCHAR

STARTCHAR char76
ENCODING 76
SWIDTH 71 0
DWIDTH 10 0
BBX 7 9 1 0
BITMAP
80
80
80
80
80
80
80
80
FE
ENDCHAR

STARTCHAR char77
ENCODING 77
SWIDTH 20 0
DWIDTH 13 0
BBX 10 9 1 0
BITMAP
E0C0
C180
A180
A280
A280
9480
9480
8880
C880
ENDCHAR

STARTCHAR char78
ENCODING 78
SWIDTH 13 0
DWIDTH 12 0
BBX 9 9 1 0
BITMAP
E180
C100
A100
9100
8900
8500
8500
8300
C180
ENDCHAR

STARTCHAR char79
ENCODING 79
SWIDTH 13 0
DWIDTH 12 0
BBX 11 9 0 0
BITMAP
1F00
20C0
4040
8020
8020
8020
4040
60C0
1F00
ENDCHAR

STARTCHAR char80
ENCODING 80
SWIDTH 71 0
DWIDTH 10 0
BBX 8 9 1 0
BITMAP
FE
83
81
81
FE
80
80
80
C0
ENDCHAR

STARTCHAR char81
ENCODING 81
SWIDTH 6 0
DWIDTH 11 0
BBX 10 10 0 -1
BITMAP
1E00
2180
4080
8040
8040
8040
40C0
6D80
1F00
0080
ENDCHAR

STARTCHAR char82
ENCODING 82
SWIDTH 71 0
DWIDTH 10 0
BBX 9 9 1 0
BITMAP
FE00
8300
8100
8100
FE00
8400
8600
8200
C180
ENDCHAR

STARTCHAR char83
ENCODING 83
SWIDTH 71 0
DWIDTH 10 0
BBX 9 9 0 0
BITMAP
3E00
4100
8000
8000
7F00
0180
0080
C100
3E00
ENDCHAR

STARTCHAR char84
ENCODING 84
SWIDTH 71 0
DWIDTH 10 0
BBX 9 9 0 0
BITMAP
FF80
0800
0800
0800
0800
0800
0800
0800
0C00
ENDCHAR

STARTCHAR char85
ENCODING 85
SWIDTH 6 0
DWIDTH 11 0
BBX 8 9 1 0
BITMAP
C1
81
81
81
81
81
81
81
7E
ENDCHAR

STARTCHAR char86
ENCODING 86
SWIDTH 71 0
DWIDTH 10 0
BBX 10 9 0 0
BITMAP
C1C0
4100
4100
4200
2200
2400
1400
1400
1C00
ENDCHAR

STARTCHAR char87
ENCODING 87
SWIDTH 34 0
DWIDTH 15 0
BBX 13 9 0 0
BITMAP
8308
8308
4508
4510
4490
28A0
28A0
2860
1860
ENDCHAR

STARTCHAR char88
ENCODING 88
SWIDTH 71 0
DWIDTH 10 0
BBX 9 9 0 0
BITMAP
E100
2200
3400
1C00
0800
1400
2600
4200
E180
ENDCHAR

STARTCHAR char89
ENCODING 89
SWIDTH 64 0
DWIDTH 9 0
BBX 8 9 0 0
BITMAP
C1
42
22
14
08
08
08
08
1C
ENDCHAR

STARTCHAR char90
ENCODING 90
SWIDTH 64 0
DWIDTH 9 0
BBX 8 9 0 0
BITMAP
FF
02
04
08
18
10
20
40
FF
ENDCHAR

STARTCHAR char91
ENCODING 91
SWIDTH 35 0
DWIDTH 5 0
BBX 3 9 1 0
BITMAP
E0
80
80
80
80
80
80
80
E0
ENDCHAR

STARTCHAR char92
ENCODING 92
SWIDTH 28 0
DWIDTH 4 0
BBX 4 9 0 0
BITMAP
80
80
40
40
40
20
20
20
20
ENDCHAR

STARTCHAR char93
ENCODING 93
SWIDTH 35 0
DWIDTH 5 0
BBX 3 9 0 0
BITMAP
E0
20
20
20
20
20
20
20
E0
ENDCHAR

STARTCHAR char94
ENCODING 94
SWIDTH 0 0
DWIDTH 0 0
BBX 4 3 -2 9
BITMAP
60
60
90
ENDCHAR

STARTCHAR char95
ENCODING 95
SWIDTH 50 0
DWIDTH 7 0
BBX 7 1 0 -2
BITMAP
FE
ENDCHAR

STARTCHAR char96
ENCODING 96
SWIDTH 0 0
DWIDTH 0 0
BBX 3 2 -2 8
BITMAP
80
40
ENDCHAR

STARTCHAR char97
ENCODING 97
SWIDTH 64 0
DWIDTH 9 0
BBX 9 7 0 0
BITMAP
1800
2800
2400
2400
7E00
4200
C180
ENDCHAR

STARTCHAR char98
ENCODING 98
SWIDTH 64 0
DWIDTH 9 0
BBX 7 7 1 0
BITMAP
FC
82
84
FC
82
82
FC
ENDCHAR

STARTCHAR char99
ENCODING 99
SWIDTH 64 0
DWIDTH 9 0
BBX 8 7 0 0
BITMAP
3F
40
80
80
80
41
3E
ENDCHAR

STARTCHAR char100
ENCODING 100
SWIDTH 71 0
DWIDTH 10 0
BBX 7 7 1 0
BITMAP
FC
82
82
82
82
86
F8
ENDCHAR

STARTCHAR char101
ENCODING 101
SWIDTH 57 0
DWIDTH 8 0
BBX 6 8 1 0
BITMAP
04
FC
80
80
F0
80
80
FC
ENDCHAR

STARTCHAR char102
ENCODING 102
SWIDTH 57 0
DWIDTH 8 0
BBX 7 8 1 0
BITMAP
04
FE
80
80
F8
80
80
C0
ENDCHAR

STARTCHAR char103
ENCODING 103
SWIDTH 71 0
DWIDTH 10 0
BBX 9 7 0 0
BITMAP
3F80
4100
8000
8700
8100
4100
3E00
ENDCHAR

STARTCHAR char104
ENCODING 104
SWIDTH 71 0
DWIDTH 10 0
BBX 8 7 1 0
BITMAP
82
82
82
FE
82
82
83
ENDCHAR

STARTCHAR char105
ENCODING 105
SWIDTH 21 0
DWIDTH 3 0
BBX 2 7 1 0
BITMAP
C0
80
80
80
80
80
C0
ENDCHAR

STARTCHAR char106
ENCODING 106
SWIDTH 50 0
DWIDTH 7 0
BBX 7 7 0 0
BITMAP
0E
04
04
04
04
44
F8
ENDCHAR

STARTCHAR char107
ENCODING 107
SWIDTH 64 0
DWIDTH 9 0
BBX 7 7 1 0
BITMAP
CE
90
A0
D0
88
88
C6
ENDCHAR

STARTCHAR char108
ENCODING 108
SWIDTH 57 0
DWIDTH 8 0
BBX 6 7 1 0
BITMAP
80
80
80
80
80
80
FC
ENDCHAR

STARTCHAR char109
ENCODING 109
SWIDTH 6 0
DWIDTH 11 0
BBX 9 7 1 0
BITMAP
C380
C300
A500
A500
A900
9900
C900
ENDCHAR

STARTCHAR char110
ENCODING 110
SWIDTH 71 0
DWIDTH 10 0
BBX 8 7 1 0
BITMAP
C3
A2
A2
92
8A
86
C3
ENDCHAR

STARTCHAR char111
ENCODING 111
SWIDTH 71 0
DWIDTH 10 0
BBX 9 7 0 0
BITMAP
3F00
4100
8080
8080
8080
4100
3E00
ENDCHAR

STARTCHAR char112
ENCODING 112
SWIDTH 64 0
DWIDTH 9 0
BBX 6 7 1 0
BITMAP
F8
84
84
F8
80
80
80
ENDCHAR

STARTCHAR char113
ENCODING 113
SWIDTH 71 0
DWIDTH 10 0
BBX 8 8 0 -1
BITMAP
3E
41
81
81
81
4A
3E
01
ENDCHAR

STARTCHAR char114
ENCODING 114
SWIDTH 64 0
DWIDTH 9 0
BBX 7 7 1 0
BITMAP
FC
82
82
FC
88
84
86
ENDCHAR

STARTCHAR char115
ENCODING 115
SWIDTH 64 0
DWIDTH 9 0
BBX 8 7 0 0
BITMAP
7E
80
C0
7E
01
83
7C
ENDCHAR

STARTCHAR char116
ENCODING 116
SWIDTH 57 0
DWIDTH 8 0
BBX 7 7 0 0
BITMAP
FE
10
10
10
10
10
18
ENDCHAR

STARTCHAR char117
ENCODING 117
SWIDTH 64 0
DWIDTH 9 0
BBX 8 7 1 0
BITMAP
C7
82
82
82
82
82
7C
ENDCHAR

STARTCHAR char118
ENCODING 118
SWIDTH 64 0
DWIDTH 9 0
BBX 8 7 0 0
BITMAP
C3
42
44
24
28
28
10
ENDCHAR

STARTCHAR char119
ENCODING 119
SWIDTH 20 0
DWIDTH 13 0
BBX 12 7 0 0
BITMAP
C630
4A20
4A40
4940
2940
3180
38C0
ENDCHAR

STARTCHAR char120
ENCODING 120
SWIDTH 57 0
DWIDTH 8 0
BBX 7 7 0 0
BITMAP
E6
6C
38
18
2C
44
82
ENDCHAR

STARTCHAR char121
ENCODING 121
SWIDTH 57 0
DWIDTH 8 0
BBX 7 7 0 0
BITMAP
C6
44
28
10
10
10
18
ENDCHAR

STARTCHAR char122
ENCODING 122
SWIDTH 57 0
DWIDTH 8 0
BBX 7 8 0 0
BITMAP
80
FC
08
08
10
20
40
FE
ENDCHAR

STARTCHAR char123
ENCODING 123
SWIDTH 35 0
DWIDTH 5 0
BBX 3 12 1 -3
BITMAP
60
40
40
40
C0
80
80
40
40
40
40
60
ENDCHAR

STARTCHAR char124
ENCODING 124
SWIDTH 28 0
DWIDTH 4 0
BBX 1 9 1 0
BITMAP
80
80
80
80
80
80
80
80
80
ENDCHAR

STARTCHAR char125
ENCODING 125
SWIDTH 35 0
DWIDTH 5 0
BBX 3 12 1 -3
BITMAP
80
40
40
40
40
20
40
40
40
40
40
C0
ENDCHAR

STARTCHAR char126
ENCODING 126
SWIDTH 0 0
DWIDTH 0 0
BBX 6 2 -3 9
BITMAP
7C
48
ENDCHAR

STARTCHAR char128
ENCODING 128
SWIDTH 6 0
DWIDTH 11 0
BBX 12 9 -1 0
BITMAP
07C0
1820
3000
3F80
BF00
2000
1010
1830
07C0
ENDCHAR

STARTCHAR char130
ENCODING 130
SWIDTH 14 0
DWIDTH 2 0
BBX 1 2 1 -1
BITMAP
80
80
ENDCHAR

STARTCHAR char131
ENCODING 131
SWIDTH 0 0
DWIDTH 0 0
BBX 4 3 -2 9
BITMAP
60
60
90
ENDCHAR

STARTCHAR char132
ENCODING 132
SWIDTH 28 0
DWIDTH 4 0
BBX 4 2 0 -1
BITMAP
A0
50
ENDCHAR

STARTCHAR char133
ENCODING 133
SWIDTH 20 0
DWIDTH 13 0
BBX 9 1 2 0
BITMAP
8880
ENDCHAR

STARTCHAR char134
ENCODING 134
SWIDTH 57 0
DWIDTH 8 0
BBX 7 11 0 -2
BITMAP
10
10
10
FE
10
10
10
10
10
10
10
ENDCHAR

STARTCHAR char136
ENCODING 136
SWIDTH 0 0
DWIDTH 0 0
BBX 4 2 -2 8
BITMAP
60
50
ENDCHAR

STARTCHAR char138
ENCODING 138
SWIDTH 13 0
DWIDTH 12 0
BBX 0 0 0 0
BITMAP
ENDCHAR

STARTCHAR char139
ENCODING 139
SWIDTH 28 0
DWIDTH 4 0
BBX 2 5 1 1
BITMAP
40
40
80
40
40
ENDCHAR

STARTCHAR char140
ENCODING 140
SWIDTH 34 0
DWIDTH 15 0
BBX 13 9 0 0
BITMAP
1FF8
2200
4200
8200
83E0
8200
C200
6200
1FF8
ENDCHAR

STARTCHAR char141
ENCODING 141
SWIDTH 13 0
DWIDTH 12 0
BBX 0 0 0 0
BITMAP
ENDCHAR

STARTCHAR char145
ENCODING 145
SWIDTH 14 0
DWIDTH 2 0
BBX 1 3 1 6
BITMAP
80
80
80
ENDCHAR

STARTCHAR char146
ENCODING 146
SWIDTH 14 0
DWIDTH 2 0
BBX 1 3 1 6
BITMAP
80
80
80
ENDCHAR

STARTCHAR char147
ENCODING 147
SWIDTH 28 0
DWIDTH 4 0
BBX 2 3 1 6
BITMAP
80
C0
C0
ENDCHAR

STARTCHAR char148
ENCODING 148
SWIDTH 28 0
DWIDTH 4 0
BBX 3 3 0 6
BITMAP
A0
A0
A0
ENDCHAR

STARTCHAR char149
ENCODING 149
SWIDTH 28 0
DWIDTH 4 0
BBX 3 3 1 3
BITMAP
E0
E0
E0
ENDCHAR

STARTCHAR char150
ENCODING 150
SWIDTH 6 0
DWIDTH 11 0
BBX 9 1 0 3
BITMAP
FF80
ENDCHAR

STARTCHAR char151
ENCODING 151
SWIDTH 64 0
DWIDTH 9 0
BBX 8 1 0 3
BITMAP
FF
ENDCHAR

STARTCHAR char152
ENCODING 152
SWIDTH 0 0
DWIDTH 0 0
BBX 4 1 -2 8
BITMAP
F0
ENDCHAR

STARTCHAR char153
ENCODING 153
SWIDTH 13 0
DWIDTH 12 0
BBX 11 5 0 3
BITMAP
FE60
26C0
26C0
2740
65C0
ENDCHAR

STARTCHAR char155
ENCODING 155
SWIDTH 28 0
DWIDTH 4 0
BBX 2 5 1 1
BITMAP
80
80
40
C0
80
ENDCHAR

STARTCHAR char156
ENCODING 156
SWIDTH 13 0
DWIDTH 12 0
BBX 11 8 0 0
BITMAP
0020
3FE0
4400
8400
8780
8400
4400
3FE0
ENDCHAR

STARTCHAR char157
ENCODING 157
SWIDTH 13 0
DWIDTH 12 0
BBX 0 0 0 0
BITMAP
ENDCHAR

STARTCHAR char159
ENCODING 159
SWIDTH 64 0
DWIDTH 9 0
BBX 8 11 0 0
BITMAP
24
00
81
42
22
14
08
08
08
08
08
ENDCHAR

STARTCHAR char160
ENCODING 160
SWIDTH 43 0
DWIDTH 6 0
BBX 0 0 0 0
BITMAP
ENDCHAR

STARTCHAR char161
ENCODING 161
SWIDTH 21 0
DWIDTH 3 0
BBX 2 9 0 0
BITMAP
C0
00
00
40
40
40
40
40
C0
ENDCHAR

STARTCHAR char162
ENCODING 162
SWIDTH 64 0
DWIDTH 9 0
BBX 8 9 0 -1
BITMAP
08
3F
48
88
88
88
49
3E
08
ENDCHAR

STARTCHAR char163
ENCODING 163
SWIDTH 71 0
DWIDTH 10 0
BBX 9 9 0 0
BITMAP
1F00
2080
4000
4000
FC00
4200
4000
4000
FF80
ENDCHAR

STARTCHAR char164
ENCODING 164
SWIDTH 0 0
DWIDTH 0 0
BBX 3 3 -1 9
BITMAP
20
40
80
ENDCHAR

STARTCHAR char165
ENCODING 165
SWIDTH 0 0
DWIDTH 0 0
BBX 4 3 -2 9
BITMAP
90
50
60
ENDCHAR

STARTCHAR char166
ENCODING 166
SWIDTH 13 0
DWIDTH 12 0
BBX 0 0 0 0
BITMAP
ENDCHAR

STARTCHAR char167
ENCODING 167
SWIDTH 50 0
DWIDTH 7 0
BBX 6 12 0 -3
BITMAP
78
44
40
60
58
84
C4
24
18
84
CC
38
ENDCHAR

STARTCHAR char168
ENCODING 168
SWIDTH 0 0
DWIDTH 0 0
BBX 4 1 -2 8
BITMAP
90
ENDCHAR

STARTCHAR char169
ENCODING 169
SWIDTH 6 0
DWIDTH 11 0
BBX 9 8 0 0
BITMAP
1E00
6F00
5280
A080
A080
7280
6D00
1E00
ENDCHAR

STARTCHAR char170
ENCODING 170
SWIDTH 0 0
DWIDTH 0 0
BBX 4 1 -2 10
BITMAP
90
ENDCHAR

STARTCHAR char171
ENCODING 171
SWIDTH 43 0
DWIDTH 6 0
BBX 4 5 1 1
BITMAP
60
A0
A0
A0
60
ENDCHAR

STARTCHAR char172
ENCODING 172
SWIDTH 71 0
DWIDTH 10 0
BBX 8 4 0 0
BITMAP
FF
01
01
01
ENDCHAR

STARTCHAR char174
ENCODING 174
SWIDTH 6 0
DWIDTH 11 0
BBX 9 8 0 0
BITMAP
1E00
7D00
5280
9E80
9480
9680
7B00
1E00
ENDCHAR

STARTCHAR char176
ENCODING 176
SWIDTH 43 0
DWIDTH 6 0
BBX 5 4 -1 4
BITMAP
70
88
D0
20
ENDCHAR

STARTCHAR char177
ENCODING 177
SWIDTH 50 0
DWIDTH 7 0
BBX 6 8 0 0
BITMAP
10
10
10
FC
10
10
10
FC
ENDCHAR

STARTCHAR char179
ENCODING 179
SWIDTH 13 0
DWIDTH 12 0
BBX 0 0 0 0
BITMAP
ENDCHAR

STARTCHAR char180
ENCODING 180
SWIDTH 0 0
DWIDTH 0 0
BBX 3 2 -1 8
BITMAP
20
40
ENDCHAR

STARTCHAR char182
ENCODING 182
SWIDTH 64 0
DWIDTH 9 0
BBX 6 11 1 -2
BITMAP
7C
E8
E8
E8
68
28
28
28
28
28
28
ENDCHAR

STARTCHAR char183
ENCODING 183
SWIDTH 14 0
DWIDTH 2 0
BBX 1 1 1 3
BITMAP
80
ENDCHAR

STARTCHAR char184
ENCODING 184
SWIDTH 0 0
DWIDTH 0 0
BBX 3 2 -1 -2
BITMAP
E0
E0
ENDCHAR

STARTCHAR char185
ENCODING 185
SWIDTH 13 0
DWIDTH 12 0
BBX 0 0 0 0
BITMAP
ENDCHAR

STARTCHAR char186
ENCODING 186
SWIDTH 0 0
DWIDTH 0 0
BBX 6 2 -3 9
BITMAP
7C
48
ENDCHAR

STARTCHAR char187
ENCODING 187
SWIDTH 43 0
DWIDTH 6 0
BBX 3 5 1 1
BITMAP
A0
A0
60
A0
C0
ENDCHAR

STARTCHAR char189
ENCODING 189
SWIDTH 13 0
DWIDTH 12 0
BBX 0 0 0 0
BITMAP
ENDCHAR

STARTCHAR char191
ENCODING 191
SWIDTH 50 0
DWIDTH 7 0
BBX 5 9 0 0
BITMAP
20
00
00
20
20
40
80
88
70
ENDCHAR

STARTCHAR char192
ENCODING 192
SWIDTH 6 0
DWIDTH 11 0
BBX 10 12 0 0
BITMAP
3000
1000
0800
0800
0C00
1400
1200
2200
2300
7F00
4180
C0C0
ENDCHAR

STARTCHAR char193
ENCODING 193
SWIDTH 6 0
DWIDTH 11 0
BBX 10 12 0 0
BITMAP
0600
0400
0800
0800
0C00
1400
1200
2200
2300
7F00
4180
C0C0
ENDCHAR

STARTCHAR char194
ENCODING 194
SWIDTH 6 0
DWIDTH 11 0
BBX 10 12 0 0
BITMAP
0800
1400
2200
0800
0C00
1400
1200
2200
2300
7F00
4180
C0C0
ENDCHAR

STARTCHAR char195
ENCODING 195
SWIDTH 6 0
DWIDTH 11 0
BBX 10 11 0 0
BITMAP
3A00
1400
0800
0C00
1400
1200
2200
2300
7F00
4180
C0C0
ENDCHAR

STARTCHAR char196
ENCODING 196
SWIDTH 6 0
DWIDTH 11 0
BBX 9 9 0 0
BITMAP
2B00
0C00
1400
1200
2200
2100
7F00
4080
C080
ENDCHAR

STARTCHAR char197
ENCODING 197
SWIDTH 6 0
DWIDTH 11 0
BBX 10 11 0 0
BITMAP
1C00
1C00
0800
0C00
1400
1200
2200
2300
7F00
4180
C0C0
ENDCHAR

STARTCHAR char198
ENCODING 198
SWIDTH 27 0
DWIDTH 14 0
BBX 12 9 0 0
BITMAP
07F0
0A00
0A00
1200
13C0
2200
7E00
4200
83F0
ENDCHAR

STARTCHAR char199
ENCODING 199
SWIDTH 6 0
DWIDTH 11 0
BBX 10 11 0 -2
BITMAP
1F00
2080
4000
8000
8000
8000
4040
78C0
0700
0C00
0C00
ENDCHAR

STARTCHAR char200
ENCODING 200
SWIDTH 71 0
DWIDTH 10 0
BBX 7 12 1 0
BITMAP
40
20
10
FE
80
80
80
F8
80
80
80
FE
ENDCHAR

STARTCHAR char201
ENCODING 201
SWIDTH 71 0
DWIDTH 10 0
BBX 7 12 1 0
BITMAP
08
10
30
FE
80
80
80
F8
80
80
80
FE
ENDCHAR

STARTCHAR char202
ENCODING 202
SWIDTH 71 0
DWIDTH 10 0
BBX 7 12 1 0
BITMAP
30
30
48
FE
80
80
80
F8
80
80
80
FE
ENDCHAR

STARTCHAR char203
ENCODING 203
SWIDTH 71 0
DWIDTH 10 0
BBX 7 11 1 0
BITMAP
48
00
FE
80
80
80
F8
80
80
80
FE
ENDCHAR

STARTCHAR char204
ENCODING 204
SWIDTH 28 0
DWIDTH 4 0
BBX 4 12 -1 0
BITMAP
C0
40
20
20
20
20
20
20
20
20
20
30
ENDCHAR

STARTCHAR char205
ENCODING 205
SWIDTH 28 0
DWIDTH 4 0
BBX 3 12 1 0
BITMAP
60
40
80
80
80
80
80
80
80
80
80
E0
ENDCHAR

STARTCHAR char206
ENCODING 206
SWIDTH 28 0
DWIDTH 4 0
BBX 5 12 -1 0
BITMAP
20
70
98
20
20
20
20
20
20
20
20
30
ENDCHAR

STARTCHAR char207
ENCODING 207
SWIDTH 28 0
DWIDTH 4 0
BBX 5 11 -1 0
BITMAP
88
00
20
20
20
20
20
20
20
20
38
ENDCHAR

STARTCHAR char209
ENCODING 209
SWIDTH 13 0
DWIDTH 12 0
BBX 9 11 1 0
BITMAP
3E00
2400
C100
C100
A100
9100
8900
8500
8500
8300
C180
ENDCHAR

STARTCHAR char210
ENCODING 210
SWIDTH 13 0
DWIDTH 12 0
BBX 11 12 0 0
BITMAP
1800
0800
0400
1F00
20C0
4040
8020
8020
8020
4040
60C0
1F00
ENDCHAR

STARTCHAR char211
ENCODING 211
SWIDTH 13 0
DWIDTH 12 0
BBX 11 12 0 0
BITMAP
0300
0200
0400
1F00
20C0
4040
8020
8020
8020
4040
60C0
1F00
ENDCHAR

STARTCHAR char212
ENCODING 212
SWIDTH 13 0
DWIDTH 12 0
BBX 11 12 0 0
BITMAP
0400
0C00
1300
1F00
20C0
4040
8020
8020
8020
4040
60C0
1F00
ENDCHAR

STARTCHAR char213
ENCODING 213
SWIDTH 13 0
DWIDTH 12 0
BBX 11 11 0 0
BITMAP
1F00
1200
1F00
20C0
4040
8020
8020
8020
4040
60C0
1F00
ENDCHAR

STARTCHAR char214
ENCODING 214
SWIDTH 13 0
DWIDTH 12 0
BBX 11 9 0 0
BITMAP
5F40
20C0
4040
8020
8020
8020
4040
60C0
1F00
ENDCHAR

STARTCHAR char216
ENCODING 216
SWIDTH 13 0
DWIDTH 12 0
BBX 11 9 0 0
BITMAP
1F60
2080
4140
8220
8420
8820
5040
6080
9F00
ENDCHAR

STARTCHAR char217
ENCODING 217
SWIDTH 6 0
DWIDTH 11 0
BBX 8 12 1 0
BITMAP
60
20
10
81
81
81
81
81
81
81
81
7E
ENDCHAR

STARTCHAR char218
ENCODING 218
SWIDTH 6 0
DWIDTH 11 0
BBX 8 12 1 0
BITMAP
0C
08
10
81
81
81
81
81
81
81
81
7E
ENDCHAR

STARTCHAR char219
ENCODING 219
SWIDTH 6 0
DWIDTH 11 0
BBX 8 12 1 0
BITMAP
18
28
24
81
81
81
81
81
81
81
81
7E
ENDCHAR

STARTCHAR char220
ENCODING 220
SWIDTH 6 0
DWIDTH 11 0
BBX 8 9 1 0
BITMAP
A5
81
81
81
81
81
81
81
7E
ENDCHAR

STARTCHAR char222
ENCODING 222
SWIDTH 13 0
DWIDTH 12 0
BBX 0 0 0 0
BITMAP
ENDCHAR

STARTCHAR char223
ENCODING 223
SWIDTH 42 0
DWIDTH 16 0
BBX 15 7 0 0
BITMAP
7E7C
8080
8080
7C7E
0202
8282
7C7C
ENDCHAR

STARTCHAR char224
ENCODING 224
SWIDTH 64 0
DWIDTH 9 0
BBX 9 10 0 0
BITMAP
2000
1000
0000
1800
1800
2400
2400
7E00
4200
C180
ENDCHAR

STARTCHAR char225
ENCODING 225
SWIDTH 64 0
DWIDTH 9 0
BBX 9 10 0 0
BITMAP
0C00
0800
1000
1800
1800
2400
2400
7E00
4200
C180
ENDCHAR

STARTCHAR char226
ENCODING 226
SWIDTH 64 0
DWIDTH 9 0
BBX 9 10 0 0
BITMAP
1000
1800
0000
1800
1800
2400
2400
7E00
4200
C180
ENDCHAR

STARTCHAR char227
ENCODING 227
SWIDTH 64 0
DWIDTH 9 0
BBX 9 9 0 0
BITMAP
3C00
0000
1800
1800
2400
2400
7E00
4200
C180
ENDCHAR

STARTCHAR char228
ENCODING 228
SWIDTH 64 0
DWIDTH 9 0
BBX 9 9 0 0
BITMAP
2400
0000
1800
1800
2400
2400
7E00
4200
C180
ENDCHAR

STARTCHAR char229
ENCODING 229
SWIDTH 64 0
DWIDTH 9 0
BBX 8 10 0 0
BITMAP
38
28
38
18
18
24
24
7E
42
81
ENDCHAR

STARTCHAR char230
ENCODING 230
SWIDTH 13 0
DWIDTH 12 0
BBX 11 7 0 0
BITMAP
0FE0
1400
2400
2700
7C00
4400
8FC0
ENDCHAR

STARTCHAR char231
ENCODING 231
SWIDTH 64 0
DWIDTH 9 0
BBX 8 9 0 -2
BITMAP
3F
40
80
80
80
73
0C
18
18
ENDCHAR

STARTCHAR char232
ENCODING 232
SWIDTH 57 0
DWIDTH 8 0
BBX 6 10 1 0
BITMAP
40
40
04
FC
80
80
F0
80
80
FC
ENDCHAR

STARTCHAR char233
ENCODING 233
SWIDTH 57 0
DWIDTH 8 0
BBX 6 10 1 0
BITMAP
18
10
04
FC
80
80
F0
80
80
FC
ENDCHAR

STARTCHAR char234
ENCODING 234
SWIDTH 57 0
DWIDTH 8 0
BBX 6 10 1 0
BITMAP
20
50
04
FC
80
80
F0
80
80
FC
ENDCHAR

STARTCHAR char235
ENCODING 235
SWIDTH 57 0
DWIDTH 8 0
BBX 6 9 1 0
BITMAP
50
04
FC
80
80
F0
80
80
FC
ENDCHAR

STARTCHAR char236
ENCODING 236
SWIDTH 21 0
DWIDTH 3 0
BBX 4 10 -1 0
BITMAP
C0
40
00
20
20
20
20
20
20
30
ENDCHAR

STARTCHAR char237
ENCODING 237
SWIDTH 21 0
DWIDTH 3 0
BBX 3 10 1 0
BITMAP
60
40
00
80
80
80
80
80
80
C0
ENDCHAR

STARTCHAR char238
ENCODING 238
SWIDTH 21 0
DWIDTH 3 0
BBX 4 9 -1 0
BITMAP
70
00
20
20
20
20
20
20
30
ENDCHAR

STARTCHAR char239
ENCODING 239
SWIDTH 21 0
DWIDTH 3 0
BBX 4 9 -1 0
BITMAP
90
00
20
20
20
20
20
20
30
ENDCHAR

STARTCHAR char241
ENCODING 241
SWIDTH 71 0
DWIDTH 10 0
BBX 8 9 1 0
BITMAP
7C
00
C2
A2
A2
92
8A
86
C3
ENDCHAR

STARTCHAR char242
ENCODING 242
SWIDTH 71 0
DWIDTH 10 0
BBX 9 10 0 0
BITMAP
3000
1000
0000
3F00
4100
8080
8080
8080
4100
3E00
ENDCHAR

STARTCHAR char243
ENCODING 243
SWIDTH 71 0
DWIDTH 10 0
BBX 9 10 0 0
BITMAP
0400
0800
0000
3F00
4100
8080
8080
8080
4100
3E00
ENDCHAR

STARTCHAR char244
ENCODING 244
SWIDTH 71 0
DWIDTH 10 0
BBX 9 10 0 0
BITMAP
0800
1400
0000
3F00
4100
8080
8080
8080
4100
3E00
ENDCHAR

STARTCHAR char245
ENCODING 245
SWIDTH 71 0
DWIDTH 10 0
BBX 9 9 0 0
BITMAP
3E00
0000
3F00
4100
8080
8080
8080
4100
3E00
ENDCHAR

STARTCHAR char246
ENCODING 246
SWIDTH 71 0
DWIDTH 10 0
BBX 9 9 0 0
BITMAP
1400
0000
3F00
4100
8080
8080
8080
4100
3E00
ENDCHAR

STARTCHAR char247
ENCODING 247
SWIDTH 50 0
DWIDTH 7 0
BBX 6 4 0 1
BITMAP
10
FC
00
10
ENDCHAR

STARTCHAR char248
ENCODING 248
SWIDTH 71 0
DWIDTH 10 0
BBX 9 8 0 0
BITMAP
0080
3F80
4300
8480
8880
B080
4100
BE00
ENDCHAR

STARTCHAR char249
ENCODING 249
SWIDTH 64 0
DWIDTH 9 0
BBX 7 10 1 0
BITMAP
40
20
00
82
82
82
82
82
82
7C
ENDCHAR

STARTCHAR char250
ENCODING 250
SWIDTH 64 0
DWIDTH 9 0
BBX 7 10 1 0
BITMAP
08
10
00
82
82
82
82
82
82
7C
ENDCHAR

STARTCHAR char251
ENCODING 251
SWIDTH 64 0
DWIDTH 9 0
BBX 7 10 1 0
BITMAP
30
28
00
82
82
82
82
82
82
7C
ENDCHAR

STARTCHAR char252
ENCODING 252
SWIDTH 64 0
DWIDTH 9 0
BBX 7 9 1 0
BITMAP
48
00
82
82
82
82
82
82
7C
ENDCHAR

STARTCHAR char255
ENCODING 255
SWIDTH 57 0
DWIDTH 8 0
BBX 7 9 0 0
BITMAP
4C
00
44
4C
28
10
10
10
18
ENDCHAR
ENDFONT
